<?xml version="1.0" encoding="UTF-8" standalone="no"?>
<svg
   viewBox="0 0 627.7 719.96002"
   version="1.1"
   id="svg64"
   sodipodi:docname="defogger_hex_is.svg"
   width="627.70001"
   height="719.96002"
   inkscape:version="1.1.2 (b8e25be833, 2022-02-05)"
   xmlns:inkscape="http://www.inkscape.org/namespaces/inkscape"
   xmlns:sodipodi="http://sodipodi.sourceforge.net/DTD/sodipodi-0.dtd"
   xmlns="http://www.w3.org/2000/svg"
   xmlns:svg="http://www.w3.org/2000/svg">
  <sodipodi:namedview
     id="namedview66"
     pagecolor="#ffffff"
     bordercolor="#666666"
     borderopacity="1.0"
     inkscape:pageshadow="2"
     inkscape:pageopacity="0.0"
     inkscape:pagecheckerboard="0"
     showgrid="false"
     inkscape:zoom="0.7706315"
     inkscape:cx="683.20592"
     inkscape:cy="412.64859"
     inkscape:window-width="1920"
     inkscape:window-height="1009"
     inkscape:window-x="-8"
     inkscape:window-y="-8"
     inkscape:window-maximized="1"
     inkscape:current-layer="svg64" />
  <defs
     id="defs4">
    <style
       id="style2">.c{opacity:.72;}.d{fill:#ff4d1d;}.e{fill:#fff;}.f{fill:#ddd78c;}</style>
  </defs>
  <g
     id="a"
     transform="translate(-740.33,-108.43)">
    <path
       class="f"
       d="m 740.33,296.26 v 344.3 c 0,5.6 2.99,10.78 7.84,13.58 l 298.17,172.15 c 4.85,2.8 10.83,2.8 15.68,0 l 298.17,-172.15 c 4.85,-2.8 7.84,-7.98 7.84,-13.58 v -344.3 c 0,-5.6 -2.99,-10.78 -7.84,-13.58 L 1062.02,110.53 c -4.85,-2.8 -10.83,-2.8 -15.68,0 L 748.17,282.68 c -4.85,2.8 -7.84,7.98 -7.84,13.58 z"
       id="path6" />
  </g>
  <g
     id="b"
     transform="translate(-740.33,-108.43)">
    <g
       class="c"
       id="g25">
      <path
         d="m 968.85,205.89 c 21.05,0 39.55,11.17 49.87,27.89 18.02,8.03 31.27,24.9 34.2,45.06 0,0.03 0.01,0.06 0.01,0.09 0.39,2.74 0.6,5.53 0.6,8.38 0,2.85 -0.21,5.62 -0.6,8.35 0,0.04 0,0.08 -0.02,0.12 -3.47,23.84 -21.35,43.07 -44.49,48.53 -0.06,0.02 -0.12,0.03 -0.18,0.04 -4.27,0.99 -8.72,1.52 -13.29,1.52 h -9.79 c -0.36,0 -0.68,-0.13 -0.93,-0.35 0,0 -0.02,0 -0.02,0 L 958.1,322.67 c -0.32,-0.27 -0.5,-0.67 -0.5,-1.09 V 207.33 c 0,-0.57 0.33,-1.09 0.85,-1.32 0.19,-0.09 0.4,-0.13 0.6,-0.13 h 9.79 z m -8.34,17.11 10.16,8.89 v -12.22 c 0,-0.08 0.01,-0.15 0.02,-0.23 l -10.18,-8.91 z m 0,19.59 3.63,3.17 v -15.73 l -3.63,-3.17 z m 0,19.59 10.15,8.89 v -15.73 l -10.15,-8.89 z m 0,19.58 3.63,3.17 V 269.2 l -3.63,-3.17 z m 0,19.59 10.15,8.89 v -15.73 l -10.15,-8.89 z m 0,19.58 3.63,3.17 v -15.73 l -3.63,-3.17 z m 2.41,-112.14 22.8,19.95 h 5.39 l -22.8,-19.95 z m 4.12,39.51 10.16,8.89 v -15.73 l -10.16,-8.89 z m 0,39.17 10.15,8.89 v -15.73 l -10.15,-8.89 z m 0,39.17 10.15,8.89 V 319.8 l -10.15,-8.89 z m 6.53,-53.04 10.16,8.89 v -15.73 l -10.16,-8.89 z m 0,39.17 10.16,8.89 v -15.73 l -10.16,-8.89 z m 0,-78.34 10.16,8.89 v -12.47 l -10.16,-8.89 z m 6.53,103.48 c 0,0.05 -0.01,0.1 -0.01,0.15 l 3.64,3.19 v -15.73 l -3.63,-3.17 v 15.57 z m 0,-39.01 3.63,3.17 v -15.73 l -3.63,-3.17 z m 0,-39.17 3.63,3.17 V 247.17 L 980.1,244 Z m 6.53,-28.08 v 13.42 h 6.89 v -13.42 z m 0,16.32 v 13.42 h 6.89 v -13.42 z m 0,16.32 v 13.42 h 6.89 v -13.42 z m 0,16.32 v 13.42 h 6.89 v -13.42 z m 0,16.32 v 13.42 h 6.89 v -13.42 z m 0,16.32 v 13.42 h 6.89 v -13.42 z m 0,16.32 v 13.42 h 6.89 v -13.42 z m 9.79,-81.6 v 13.42 h 23.21 v -13.42 z m 0,16.32 v 13.42 h 10.16 v -13.42 z m 11.61,16.32 h -11.61 v 13.42 h 23.21 v -13.42 z m -11.61,16.32 v 13.42 h 10.16 v -13.42 z m 11.61,16.32 h -11.61 v 13.42 h 23.21 v -13.42 z m -11.61,16.32 v 13.4 c 3.47,-0.09 6.87,-0.5 10.16,-1.2 v -12.2 z m 0,-84.5 h 10.16 v -12.2 c -3.29,-0.7 -6.68,-1.11 -10.16,-1.2 z m 13.06,0 h 11.6 c 0,0 0,0 0.01,0 0,0 0,0 0,0 h 10.09 c -6.2,-5.32 -13.59,-9.31 -21.7,-11.5 z m 0,19.22 v 13.42 h 23.21 v -13.42 z m 0,32.64 v 13.42 h 23.21 v -13.42 z m 0,32.64 v 11.5 c 8.11,-2.19 15.5,-6.18 21.7,-11.5 z m 24.66,-81.6 h -11.61 v 13.42 h 21.69 c -2.63,-4.97 -5.99,-9.49 -9.93,-13.43 -0.05,0 -0.1,0.01 -0.15,0.01 z m 0,32.64 h -11.61 v 13.42 h 23.21 v -13.42 z m 0,32.64 h -11.61 v 13.42 h 11.61 c 0.05,0 0.1,0 0.15,0.02 3.94,-3.94 7.3,-8.47 9.93,-13.44 z m 1.45,-48.96 v 13.42 h 14.22 c -0.82,-4.7 -2.24,-9.2 -4.16,-13.42 z m 11.61,32.64 h -11.61 v 13.42 h 10.06 c 1.93,-4.22 3.34,-8.72 4.16,-13.42 z m 1.45,-16.32 v 13.42 h 1.59 c 0.27,-2.2 0.41,-4.44 0.41,-6.71 0,-2.27 -0.14,-4.51 -0.41,-6.71 z"
         id="path9" />
      <path
         d="m 1140.32,217.13 c 0,4.08 -3.87,7.58 -9.8,9.55 v 6.77 c 0,4.62 -2.9,8.84 -7.21,10.49 l -13.86,5.33 36.39,12.73 c 4.37,1.53 7.32,5.51 7.52,10.13 0.2,4.62 -2.4,8.84 -6.62,10.74 l -43.69,19.66 44.1,22.05 c 2.69,1.34 4.69,3.65 5.64,6.5 0.95,2.85 0.73,5.9 -0.61,8.58 -1.92,3.83 -5.77,6.22 -10.06,6.22 -1.75,0 -3.44,-0.4 -5.02,-1.19 l -65.29,-32.64 c -3.86,-1.93 -6.21,-5.97 -6.21,-10.29 0.09,-4.32 2.69,-8.25 6.63,-10.02 l 39.6,-17.82 -38.7,-13.54 c -4.43,-1.55 -7.46,-5.75 -7.53,-10.44 0,-4.69 2.82,-8.98 7.21,-10.67 l 33.95,-13.06 c -5.19,-2.03 -8.51,-5.31 -8.51,-9.09 0,-6.3 9.24,-11.24 21.04,-11.24 11.8,0 21.04,4.94 21.04,11.24 z m -21.04,-8.34 c -2.9,0 -5.76,0.34 -8.34,0.98 v 16.96 c 0,0.6 -0.37,1.14 -0.93,1.35 l -36.16,13.91 c -3.25,1.25 -5.4,4.43 -5.35,7.91 0.05,3.48 2.3,6.6 5.59,7.75 l 42.13,14.75 c 0,0 0.02,0 0.03,0.01 0,0 0.01,0 0.02,0 0.33,0.13 3.28,1.35 3.45,3.89 0.13,1.9 -1.3,3.64 -4.37,5.33 -0.22,0.12 -0.46,0.18 -0.7,0.18 -0.51,0 -1.01,-0.27 -1.27,-0.75 -0.39,-0.7 -0.13,-1.58 0.57,-1.97 2.32,-1.28 2.9,-2.24 2.87,-2.6 -0.02,-0.37 -0.59,-0.83 -1.11,-1.13 l -42.29,19.03 c -2.92,1.32 -4.85,4.23 -4.92,7.44 -0.06,3.2 1.74,6.2 4.61,7.63 l 65.28,32.64 c 1.17,0.59 2.43,0.88 3.72,0.88 3.18,0 6.05,-1.77 7.47,-4.61 1,-1.99 1.16,-4.26 0.45,-6.37 -0.7,-2.11 -2.19,-3.83 -4.18,-4.82 l -46.84,-23.42 -7.98,-3.99 c -0.72,-0.36 -1.01,-1.23 -0.65,-1.95 0.36,-0.72 1.23,-1.01 1.95,-0.65 l 7.36,3.68 45.85,-20.63 c 3.13,-1.41 5.06,-4.54 4.91,-7.97 -0.15,-3.43 -2.34,-6.38 -5.58,-7.52 l -40.11,-14.04 c -0.1,-0.03 -0.18,-0.08 -0.27,-0.13 l -4.81,-1.68 c -0.76,-0.27 -1.15,-1.09 -0.89,-1.85 0.26,-0.76 1.09,-1.15 1.85,-0.89 l 4.62,1.62 17,-6.54 c 3.2,-1.23 5.35,-4.36 5.35,-7.79 v -23.69 c -2.58,-0.64 -5.44,-0.98 -8.34,-0.98 v 0 z m -18.13,8.35 c 0,2.39 2.56,4.87 6.89,6.5 v -3.47 c -2.77,-0.92 -5.12,-2.17 -6.82,-3.7 -0.04,0.22 -0.07,0.45 -0.07,0.67 z m 36.21,-0.67 c -1.7,1.53 -4.05,2.78 -6.83,3.7 v 3.47 c 4.34,-1.63 6.89,-4.12 6.89,-6.5 0,-0.22 -0.02,-0.45 -0.06,-0.67 z"
         id="path11" />
      <path
         d="m 964.81,421.85 c 6.2,0 11.24,5.04 11.24,11.24 0,6.2 -5.04,11.24 -11.24,11.24 H 938.7 c -3.1,0 -6.07,1.27 -8.24,3.45 3.98,2.03 6.42,4.91 6.42,8.15 v 45.7 c 0,6.3 -9.24,11.24 -21.04,11.24 -11.8,0 -21.04,-4.94 -21.04,-11.24 v -45.7 c 0,-4.41 4.53,-8.16 11.3,-10.01 4.37,-14.22 17.65,-24.09 32.59,-24.09 h 26.11 z m 16.32,-48.97 c 6.2,0 11.24,5.04 11.24,11.24 0,6.2 -5.04,11.24 -11.24,11.24 H 938.7 c -3.1,0 -6.07,1.27 -8.24,3.45 3.98,2.03 6.42,4.91 6.42,8.15 0,6.31 -9.24,11.24 -21.04,11.24 -11.8,0 -21.04,-4.94 -21.04,-11.24 0,-4.41 4.53,-8.16 11.3,-10.01 4.37,-14.22 17.65,-24.09 32.59,-24.09 h 42.43 z m -47.15,88.83 c -1.9,1.72 -4.64,3.14 -7.94,4.1 -3,0.87 -6.47,1.37 -10.19,1.37 -3.72,0 -7.19,-0.5 -10.2,-1.37 -3.3,-0.96 -6.04,-2.37 -7.93,-4.1 v 39.92 c 0,4.03 7.29,8.34 18.13,8.34 10.84,0 18.14,-4.31 18.14,-8.34 v -39.92 z m -36.2,-54.07 c 1.73,-1.55 4.13,-2.82 6.97,-3.74 0.11,-1.23 0.29,-2.46 0.53,-3.67 -4.74,1.62 -7.56,4.24 -7.56,6.74 l 0.07,0.67 z m 7.5,41.55 c -4.74,1.62 -7.56,4.24 -7.56,6.74 l 0.06,0.67 c 1.73,-1.55 4.13,-2.82 6.97,-3.74 0.11,-1.23 0.29,-2.46 0.53,-3.67 z m 59.53,-7.77 c 4.6,0 8.34,-3.74 8.34,-8.34 0,-4.6 -3.74,-8.34 -8.34,-8.34 H 938.7 c -13.93,0 -26.28,9.37 -30.04,22.78 -0.77,2.73 -1.15,5.56 -1.15,8.41 v 7.37 c 2.58,0.64 5.44,0.98 8.34,0.98 2.9,0 5.76,-0.34 8.34,-0.98 v -7.37 c 0,-3.06 0.95,-6 2.75,-8.48 0.78,-1.08 1.7,-2.03 2.72,-2.84 -2.74,0.61 -5.21,2.21 -6.9,4.54 -1.44,1.99 -2.2,4.33 -2.2,6.78 0,0.8 -0.65,1.45 -1.45,1.45 -0.8,0 -1.45,-0.65 -1.45,-1.45 0,-3.06 0.95,-6 2.75,-8.48 2.73,-3.77 7.12,-6.03 11.76,-6.03 z m 16.32,-48.97 c 4.6,0 8.34,-3.74 8.34,-8.34 0,-4.6 -3.74,-8.34 -8.34,-8.34 h -42.44 c -13.93,0 -26.28,9.37 -30.04,22.78 -0.77,2.73 -1.15,5.56 -1.15,8.41 v 7.37 c 2.58,0.64 5.44,0.98 8.34,0.98 2.9,0 5.76,-0.34 8.34,-0.98 v -7.37 c 0,-3.06 0.95,-6 2.75,-8.48 0.78,-1.08 1.7,-2.03 2.72,-2.84 -2.74,0.61 -5.21,2.21 -6.9,4.54 -1.44,1.99 -2.2,4.33 -2.2,6.78 0,0.8 -0.65,1.45 -1.45,1.45 -0.8,0 -1.45,-0.65 -1.45,-1.45 0,-3.06 0.95,-6 2.75,-8.48 2.73,-3.77 7.13,-6.03 11.76,-6.03 z m -47.15,63.47 c 0,-2.08 -1.94,-4.23 -5.31,-5.83 -0.54,0.92 -0.94,1.9 -1.21,2.92 2.61,0.9 4.83,2.12 6.45,3.58 z m 0,-48.97 c 0,-2.08 -1.94,-4.23 -5.31,-5.83 -0.54,0.92 -0.94,1.9 -1.21,2.92 2.61,0.91 4.83,2.12 6.45,3.58 z"
         id="path13" />
      <path
         d="m 1097.45,449.88 c 0.21,0.27 0.33,0.61 0.31,0.95 -0.64,16.68 -4.72,32.21 -11.48,43.72 -6.94,11.82 -16.1,18.33 -25.78,18.33 h -9.88 c -0.16,0 -0.31,-0.02 -0.45,-0.07 -7.7,-0.61 -14.97,-5.32 -21.04,-13.63 -5.86,-8.03 -10.22,-18.87 -12.6,-31.35 L 990.74,435.9 c -0.22,-0.27 -0.32,-0.62 -0.32,-0.97 0.64,-16.68 4.72,-32.21 11.48,-43.72 6.94,-11.82 16.1,-18.33 25.78,-18.33 h 9.89 c 0.15,0 0.29,0.03 0.42,0.07 15.33,1.22 28.7,18.97 33.67,44.98 l 25.8,31.93 c 0,0 0,0.01 0,0.01 v 0 z m -72.52,-73.89 c -16.53,2.46 -30.02,26.84 -31.56,57.74 l 5.68,0.79 c 0.69,-16.53 4.76,-31.89 11.46,-43.31 4.14,-7.05 9.06,-12.2 14.42,-15.22 z m -29.63,60.94 23.28,28.82 h 4.89 l -22.66,-28.05 z m 73.31,-19.46 c -5.02,-24.99 -17.91,-41.68 -32.31,-41.68 -17.64,0 -32.5,25.04 -34.28,57.35 l 19.21,-4.52 z m -41.54,48.11 66.68,-15.69 -24,-29.71 -66.68,15.69 z m -7.41,3.07 c 4.72,23.04 16.37,39.2 29.55,41.13 -10.96,-6.18 -19.92,-21.16 -23.89,-41.13 z m 75.13,-16.02 -66.58,15.67 c 5.02,25 17.91,41.69 32.31,41.69 17.64,0 32.5,-25.04 34.28,-57.35 z"
         id="path15" />
      <path
         d="m 1214.14,453.79 c 1.72,2.4 2.4,5.32 1.91,8.24 l -0.12,0.71 c -0.89,5.34 -5.46,9.22 -10.87,9.22 -0.51,0 -1.02,-0.04 -1.53,-0.11 -0.03,0 -0.09,0 -0.15,0 -0.06,0.96 0.04,2.86 0.96,6.1 3.33,11.64 0.02,19.39 -3.34,23.85 -8.04,10.65 -22.4,11.29 -25.19,11.29 -38.6,0 -70,-31.5 -70,-70.1 0,-38.6 31.4,-70 70,-70 6.08,0 11.03,4.95 11.03,11.03 v 0.72 c 0,6.08 -4.95,11.03 -11.03,11.03 -26.03,0 -47.21,21.18 -47.21,47.21 0,26.03 21.15,47.17 47.14,47.21 2.68,-0.06 6.33,-1.15 7.07,-2.13 0.16,-0.26 0.28,-1.55 -0.37,-3.86 -2.98,-10.43 -2.34,-19 1.9,-25.47 3.43,-5.23 8.97,-8.59 15.6,-9.47 1.12,-0.15 2.26,-0.22 3.4,-0.22 1.8,0 3.13,0.19 3.62,0.27 2.87,0.47 5.49,2.1 7.18,4.46 v 0 z m -0.94,7.76 c 0.35,-2.12 -0.16,-4.33 -1.41,-6.08 -1.25,-1.74 -3.18,-2.94 -5.3,-3.29 -0.42,-0.07 -1.57,-0.23 -3.16,-0.23 -1.01,0 -2.03,0.07 -3.02,0.2 -5.78,0.76 -10.59,3.67 -13.56,8.18 -3.76,5.73 -4.28,13.5 -1.54,23.08 0.59,2.07 1.06,4.87 -0.1,6.4 -1.76,2.34 -7.16,3.23 -9.35,3.28 -27.62,-0.04 -50.06,-22.51 -50.06,-50.1 0,-27.59 22.48,-50.1 50.1,-50.1 4.49,0 8.14,-3.65 8.14,-8.14 v -0.72 c 0,-4.49 -3.65,-8.14 -8.14,-8.14 -37,0 -67.1,30.1 -67.1,67.1 0,37 30.1,67.1 67.1,67.1 2.56,0 15.67,-0.48 22.88,-10.04 2.97,-3.93 5.87,-10.82 2.87,-21.31 -0.84,-2.93 -1.08,-4.99 -1.08,-6.39 -1.69,0.58 -3.74,1.93 -3.62,5.05 0.03,0.8 -0.59,1.47 -1.39,1.5 -0.02,0 -0.04,0 -0.06,0 -0.77,0 -1.42,-0.61 -1.45,-1.39 -0.24,-6.28 5.35,-8.29 8.39,-8.48 0.06,0 0.11,-0.02 0.17,-0.03 0.25,-0.03 0.52,-0.05 0.79,-0.05 0.26,0 0.44,0.01 0.51,0.02 0.02,0 0.05,0 0.07,0 0.39,0.05 0.78,0.08 1.16,0.08 3.99,0 7.36,-2.86 8.02,-6.8 l 0.12,-0.72 z"
         id="path17" />
      <path
         d="m 987,617.83 c 1.8,2.52 2.52,5.59 2.01,8.65 l -0.13,0.75 c -0.93,5.61 -5.73,9.69 -11.42,9.69 -0.53,0 -1.07,-0.04 -1.6,-0.11 -0.04,0 -0.09,0 -0.16,0 -0.06,1.01 0.04,3.01 1.01,6.41 3.49,12.22 0.02,20.36 -3.51,25.04 -8.44,11.18 -23.52,11.86 -26.45,11.86 -40.53,0 -73.5,-33.08 -73.5,-73.61 0,-40.53 32.97,-73.5 73.5,-73.5 6.39,0 11.59,5.2 11.59,11.59 v 0.76 c 0,6.39 -5.2,11.59 -11.59,11.59 -27.33,0 -49.57,22.24 -49.57,49.57 0,27.33 22.21,49.53 49.5,49.57 2.82,-0.06 6.65,-1.21 7.42,-2.23 0.17,-0.27 0.3,-1.63 -0.39,-4.05 -3.13,-10.95 -2.46,-19.95 2,-26.74 3.6,-5.49 9.42,-9.02 16.38,-9.94 1.17,-0.16 2.37,-0.23 3.57,-0.23 1.89,0 3.29,0.2 3.81,0.28 3.01,0.5 5.76,2.2 7.54,4.69 v 0 z m -0.99,8.14 c 0.37,-2.22 -0.17,-4.55 -1.48,-6.38 -1.31,-1.83 -3.34,-3.09 -5.56,-3.46 -0.44,-0.07 -1.65,-0.24 -3.31,-0.24 -1.06,0 -2.13,0.07 -3.17,0.21 -6.07,0.8 -11.12,3.85 -14.23,8.59 -3.95,6.02 -4.49,14.17 -1.62,24.24 0.62,2.18 1.11,5.11 -0.1,6.72 -1.85,2.45 -7.51,3.39 -9.81,3.44 -29,-0.04 -52.57,-23.64 -52.57,-52.61 0,-28.97 23.6,-52.61 52.61,-52.61 4.71,0 8.55,-3.83 8.55,-8.55 v -0.76 c 0,-4.71 -3.83,-8.55 -8.55,-8.55 -38.85,0 -70.46,31.61 -70.46,70.46 0,38.85 31.61,70.46 70.46,70.46 2.68,0 16.46,-0.51 24.03,-10.54 3.11,-4.13 6.16,-11.36 3.02,-22.37 -0.88,-3.08 -1.13,-5.24 -1.14,-6.71 -1.77,0.61 -3.93,2.03 -3.8,5.3 0.03,0.84 -0.62,1.54 -1.46,1.58 -0.02,0 -0.04,0 -0.06,0 -0.81,0 -1.49,-0.64 -1.52,-1.46 -0.26,-6.59 5.62,-8.7 8.81,-8.91 0.06,0 0.11,-0.02 0.17,-0.03 0.26,-0.04 0.55,-0.05 0.83,-0.05 0.27,0 0.46,0.01 0.53,0.02 0.02,0 0.05,0 0.08,0.01 0.41,0.06 0.81,0.09 1.22,0.09 4.19,0 7.73,-3 8.42,-7.14 l 0.13,-0.75 z"
         id="path19" />
      <path
         d="m 1119.52,660.1 c 0.31,0.28 0.51,0.68 0.51,1.12 v 17.14 c 0,0.84 -0.68,1.52 -1.52,1.52 h -85.69 c -0.38,0 -0.71,-0.14 -0.98,-0.37 0,0 -0.02,0 -0.02,-0.01 l -27.42,-23.99 c -0.33,-0.29 -0.52,-0.71 -0.52,-1.14 V 534.4 c 0,0 0,-0.01 0,-0.02 0,-0.17 0.03,-0.35 0.09,-0.52 0.22,-0.59 0.79,-0.99 1.43,-0.99 h 65.13 c 0.37,0 0.72,0.13 1,0.38 l 7.75,6.78 c 0.37,0.28 0.62,0.72 0.62,1.22 0,0.03 0,0.05 0,0.07 v 8.69 h 10.23 c 0.37,0 0.72,0.13 1,0.38 l 7.84,6.86 c 0,0 0.01,0.01 0.02,0.02 0.31,0.28 0.5,0.68 0.5,1.13 v 17.14 c 0,0.84 -0.68,1.52 -1.52,1.52 h -46.46 v 3.81 h 25.9 c 0.37,0 0.73,0.13 1,0.38 l 7.74,6.78 c 0,0 0.02,0.03 0.03,0.04 0.35,0.28 0.58,0.7 0.58,1.19 v 8.76 h 10.23 c 0.37,0 0.73,0.13 1,0.38 l 7.83,6.85 c 0,0 0.01,0.01 0.02,0.02 0.31,0.28 0.5,0.68 0.5,1.13 v 17.14 c 0,0.84 -0.68,1.52 -1.52,1.52 h -53.32 v 10.66 h 39.61 c 0.37,0 0.72,0.13 1,0.38 l 7.75,6.78 c 0,0 0.02,0.02 0.03,0.04 0.35,0.28 0.58,0.7 0.58,1.19 v 8.76 h 10.23 c 0.37,0 0.73,0.13 1,0.38 l 7.83,6.85 c 0,0 0.01,0.02 0.02,0.02 v 0 z m -112.61,-6.42 24.37,21.33 V 559.09 l -24.37,-21.33 z m 110.06,9.07 h -67.03 c -0.84,0 -1.52,-0.68 -1.52,-1.52 v -37.7 c 0,-0.84 0.68,-1.52 1.52,-1.52 h 53.32 v -14.09 h -53.32 c -0.84,0 -1.52,-0.68 -1.52,-1.52 v -30.85 c 0,-0.84 0.68,-1.52 1.52,-1.52 h 46.46 v -14.09 h -62.08 v 116.92 h 82.64 v -14.09 z m -40.15,-119.96 h -32.12 l 8.27,7.23 h 23.85 z m 23.91,62.08 -4.35,-3.81 h -43.99 c -0.34,0 -0.66,-0.12 -0.93,-0.32 v 4.13 z m -19.59,-17.14 -4.35,-3.81 h -25.32 v 3.81 h 29.68 z m 2.53,3.04 h -32.21 v 5.93 l 1.5,1.31 h 30.71 z m 11.18,51.8 -4.35,-3.81 h -39.04 v 3.81 z m 2.53,3.05 h -45.92 v 5.92 l 1.5,1.31 h 44.42 z m -45.92,14.09 h 62.97 l -4.35,-3.81 h -57.7 c -0.34,0 -0.66,-0.12 -0.93,-0.32 v 4.13 z"
         id="path21" />
      <path
         d="m 1236.41,655.52 -27.33,23.92 c 0,0 -0.04,0.03 -0.05,0.04 l -0.04,0.03 v 0 c -0.27,0.23 -0.6,0.38 -1,0.38 h -82.26 c -0.84,0 -1.52,-0.68 -1.52,-1.52 v -85.69 c 0,-0.44 0.2,-0.86 0.52,-1.14 v 0 c 0,0 23.74,-20.78 23.74,-20.78 2.39,-21.28 20.48,-37.87 42.38,-37.87 23.52,0 42.65,19.13 42.65,42.66 0,19.69 -13.24,36.08 -32.01,41.31 l 35.01,36.47 c 0.29,0.3 0.44,0.71 0.42,1.12 -0.02,0.42 -0.21,0.81 -0.52,1.08 z m -109.16,-59.06 v 11.83 h 7.23 V 604 Z m 0,14.88 V 622 h 14.09 v -10.66 z m 0,13.71 v 10.66 h 7.23 v -10.66 z m 0,13.71 v 10.66 h 14.09 v -10.66 z m 0,38.08 h 14.09 v -10.66 h -14.09 z m 7.24,-13.71 v -10.67 h -7.24 v 10.67 z m 98.72,-8.85 -35.22,-36.68 c -1.55,0.26 -3.13,0.44 -4.73,0.53 l 22.68,23.63 c 0.29,0.3 0.44,0.71 0.42,1.12 -0.02,0.42 -0.2,0.81 -0.52,1.08 l -17.14,15 c -0.29,0.25 -0.65,0.38 -1,0.38 -0.4,0 -0.8,-0.16 -1.1,-0.47 l -51.41,-53.56 c -0.29,-0.3 -0.44,-0.71 -0.42,-1.12 0.02,-0.42 0.21,-0.81 0.52,-1.08 l 8.13,-7.12 c -3.33,-6.07 -5.23,-13.04 -5.23,-20.44 0,-0.17 0,-0.34 0,-0.5 l -20.27,17.74 80.15,83.49 25.13,-21.99 z m -95.67,-47.1 v 1.12 h 1.07 z m 0,1.12 v -1.12 l 1.07,1.12 z m 0,16.76 v 10.66 h 14.09 v -10.66 z m 14.09,38.08 v -10.67 h -14.09 v 10.67 z m -7.24,13.71 h 14.09 v -10.66 h -14.09 z m 7.38,-54.84 -7.38,-7.69 v 7.69 z m 6.71,27.42 v -10.66 h -14.09 v 10.66 z m -8.52,-43.55 6.25,-5.47 c -0.41,-0.58 -0.81,-1.16 -1.2,-1.76 l -6.51,5.7 z m 14.97,29.84 -10.24,-10.66 -0.02,10.66 z m 3.83,27.42 v -10.67 h -14.09 v 10.67 z m -7.24,13.71 h 14.09 v -10.66 h -14.09 z m 14.09,-27.42 v -1.9 c 0,-0.2 0.04,-0.38 0.11,-0.56 l -7.87,-8.2 h -6.33 v 10.66 z m 15.23,-51.41 c 12.43,0 22.47,-9.68 22.47,-22.47 0,-12.79 -10.08,-22.47 -22.47,-22.47 -12.39,0 -22.47,10.08 -22.47,22.47 0,12.39 10.08,22.47 22.47,22.47 z m -4.95,65.12 v -5.33 c 0,-0.08 0.01,-0.15 0.02,-0.22 l -4.96,-5.17 c -0.13,0.03 -0.26,0.06 -0.39,0.06 h -8.76 v 10.66 z m -10.29,-87.59 c 0,-7.88 6.02,-14.39 13.71,-15.16 2.14,-2.16 5.11,-3.5 8.38,-3.5 6.51,0 11.81,5.3 11.81,11.81 0,3.28 -1.34,6.24 -3.5,8.39 -0.77,7.68 -7.27,13.7 -15.16,13.7 -8.4,0 -15.23,-6.83 -15.23,-15.23 z m 3.05,101.3 h 14.09 v -10.66 h -14.09 z m 33.98,-34.13 -23.57,-24.56 c -0.85,-0.04 -1.69,-0.09 -2.53,-0.18 l 24.82,25.85 1.28,-1.12 z m -23.7,-74.03 c 0,4.83 3.93,8.76 8.76,8.76 4.83,0 8.76,-3.93 8.76,-8.76 0,-4.83 -3.93,-8.76 -8.76,-8.76 -4.83,0 -8.76,3.93 -8.76,8.76 z m 0,94.45 h 2.31 l -2.31,-2.4 z m 2.31,0 h -2.31 v -2.4 z m 4.55,13.71 h 8.61 l -8.61,-8.97 z"
         id="path23" />
    </g>
    <g
       id="g43">
      <path
         class="e"
         d="m 996.3,244.93 v -13.4 c 3.47,0.09 6.87,0.5 10.16,1.2 v 12.2 z m 23.21,16.32 H 996.3 v -13.42 h 23.21 z m -13.06,16.32 h -10.16 v -13.42 h 10.16 z m 1.45,2.9 h 11.61 v 13.42 H 996.3 v -13.42 z m -11.6,29.74 v -13.42 h 10.16 v 13.42 z m 0,16.32 v -13.42 h 23.21 v 13.42 z m 0,2.9 h 10.16 v 12.2 c -3.29,0.7 -6.68,1.11 -10.16,1.2 z m 24.67,-84.5 c 0,0 0,0 0,0 0,0 0,0 -0.01,0 h -11.6 v -11.5 c 8.11,2.19 15.5,6.17 21.7,11.5 z m 11.6,19.22 v 13.42 h -11.6 c 0,0 0,0 0,0 0,0 0,0 -0.01,0 h -11.6 v -13.42 z m -23.21,46.06 v -13.42 h 23.21 v 13.42 z m 0,19.22 h 21.7 c -6.2,5.32 -13.59,9.31 -21.7,11.5 z m 24.66,-81.6 c 0.05,0 0.1,-0.01 0.15,-0.02 3.94,3.94 7.3,8.47 9.93,13.44 h -21.69 v -13.42 z m -11.61,46.06 v -13.42 h 23.21 v 13.42 z m 11.76,32.66 c 0,0 -0.1,-0.02 -0.15,-0.02 h -11.61 v -13.42 h 21.69 c -2.63,4.97 -5.99,9.5 -9.93,13.44 z m 1.3,-48.98 v -13.42 h 10.06 c 1.93,4.22 3.34,8.72 4.16,13.42 z m 0,32.64 v -13.42 h 14.22 c -0.82,4.7 -2.24,9.2 -4.16,13.42 z m 15.05,-23.03 c 0,2.27 -0.14,4.51 -0.4,6.71 h -1.59 v -13.42 h 1.59 c 0.27,2.2 0.4,4.44 0.4,6.71 z"
         id="path27" />
      <path
         class="e"
         d="m 1149.48,338.24 c -1.42,2.85 -4.29,4.61 -7.47,4.61 -1.3,0 -2.55,-0.3 -3.72,-0.88 l -65.28,-32.64 c -2.87,-1.43 -4.67,-4.43 -4.61,-7.63 0.07,-3.2 2,-6.12 4.92,-7.44 l 42.29,-19.03 c 0.51,0.3 1.08,0.76 1.11,1.13 0.02,0.36 -0.55,1.32 -2.87,2.6 -0.7,0.39 -0.96,1.27 -0.57,1.97 0.26,0.48 0.76,0.75 1.27,0.75 0.24,0 0.48,-0.06 0.7,-0.18 3.06,-1.69 4.49,-3.43 4.37,-5.33 -0.17,-2.54 -3.11,-3.76 -3.45,-3.89 0,0 -0.01,0 -0.02,0 0,0 -0.02,0 -0.03,-0.01 l -42.13,-14.75 c -3.29,-1.15 -5.53,-4.26 -5.59,-7.75 -0.05,-3.48 2.1,-6.66 5.35,-7.91 l 36.16,-13.91 c 0.56,-0.21 0.93,-0.75 0.93,-1.35 v -16.96 c 2.58,-0.64 5.44,-0.98 8.34,-0.98 2.9,0 5.76,0.34 8.34,0.98 v 23.69 c 0,3.43 -2.15,6.56 -5.35,7.79 l -17,6.54 -4.62,-1.62 c -0.76,-0.27 -1.58,0.13 -1.85,0.89 -0.27,0.76 0.13,1.58 0.89,1.85 l 4.81,1.68 c 0.09,0.05 0.17,0.1 0.27,0.13 l 40.11,14.04 c 3.24,1.13 5.43,4.08 5.58,7.51 0.15,3.43 -1.78,6.56 -4.91,7.97 l -45.85,20.63 -7.36,-3.68 c -0.72,-0.36 -1.59,-0.07 -1.95,0.65 -0.36,0.72 -0.07,1.59 0.65,1.95 l 7.98,3.99 46.84,23.42 c 1.99,1 3.48,2.71 4.18,4.82 0.71,2.11 0.54,4.38 -0.45,6.37 v 0 z"
         id="path29" />
      <path
         class="e"
         d="m 933.86,501.51 c 0,4.03 -7.29,8.34 -18.13,8.34 -10.84,0 -18.14,-4.31 -18.14,-8.34 v -39.92 c 1.9,1.72 4.64,3.14 7.93,4.1 3.01,0.87 6.48,1.37 10.2,1.37 3.72,0 7.19,-0.5 10.19,-1.37 3.3,-0.96 6.04,-2.37 7.94,-4.1 v 39.92 z m -28.7,-52.44 c -0.24,1.21 -0.42,2.44 -0.53,3.67 -2.84,0.92 -5.24,2.19 -6.97,3.74 l -0.07,-0.67 c 0,-2.51 2.82,-5.12 7.57,-6.74 z m -7.56,-42.22 c 0,-2.51 2.82,-5.12 7.56,-6.74 -0.24,1.21 -0.42,2.44 -0.53,3.67 -2.84,0.92 -5.24,2.19 -6.97,3.74 l -0.07,-0.67 z m 36.2,49.64 c -1.62,-1.46 -3.84,-2.67 -6.45,-3.58 0.26,-1.02 0.67,-2 1.21,-2.92 3.37,1.6 5.31,3.75 5.31,5.83 z m 0,-48.96 c -1.62,-1.46 -3.84,-2.67 -6.45,-3.58 0.26,-1.02 0.67,-2 1.21,-2.92 3.37,1.6 5.31,3.75 5.31,5.83 z"
         id="path31" />
      <path
         class="e"
         d="m 1010.39,391.09 c -6.71,11.42 -10.77,26.78 -11.46,43.31 l -5.68,-0.79 c 1.54,-30.9 15.03,-55.28 31.56,-57.74 -5.35,3.02 -10.28,8.18 -14.42,15.22 z m 10.71,37.4 -19.21,4.52 c 1.77,-32.31 16.63,-57.35 34.28,-57.35 14.4,0 27.28,16.69 32.31,41.68 z m 4.08,40.04 c 3.98,19.97 12.93,34.95 23.89,41.13 -13.19,-1.93 -24.83,-18.09 -29.55,-41.13 z m 35.19,41.33 c -14.26,0 -26.51,-16.69 -32.31,-41.69 l 66.58,-15.67 c -1.77,32.31 -16.63,57.35 -34.28,57.35 z"
         id="path33" />
      <path
         class="e"
         d="m 1212.96,462.13 c -0.66,3.94 -4.03,6.81 -8.02,6.81 -0.39,0 -0.78,-0.03 -1.16,-0.08 -0.02,0 -0.05,0 -0.07,0 -0.07,0 -0.25,-0.02 -0.51,-0.02 -0.27,0 -0.55,0.02 -0.79,0.05 -0.06,0 -0.11,0.02 -0.17,0.03 -3.04,0.19 -8.64,2.21 -8.39,8.48 0.03,0.78 0.67,1.39 1.45,1.39 h 0.06 c 0.8,-0.03 1.42,-0.7 1.39,-1.5 -0.12,-3.11 1.93,-4.46 3.62,-5.05 0,1.4 0.25,3.46 1.08,6.39 3,10.49 0.09,17.38 -2.87,21.31 -7.21,9.56 -20.33,10.04 -22.88,10.04 -37,0 -67.1,-30.1 -67.1,-67.11 0,-37.01 30.1,-67.1 67.1,-67.1 4.49,0 8.14,3.65 8.14,8.14 v 0.72 c 0,4.49 -3.65,8.14 -8.14,8.14 -27.63,0 -50.1,22.48 -50.1,50.1 0,27.62 22.44,50.07 50.07,50.1 2.19,-0.05 7.59,-0.94 9.35,-3.28 1.15,-1.53 0.69,-4.32 0.1,-6.4 -2.74,-9.59 -2.22,-17.35 1.54,-23.09 2.96,-4.52 7.78,-7.42 13.56,-8.18 0.99,-0.13 2.01,-0.2 3.02,-0.2 1.59,0 2.73,0.16 3.16,0.23 2.12,0.35 4.05,1.55 5.3,3.29 1.25,1.74 1.76,3.96 1.41,6.07 l -0.12,0.72 z"
         id="path35" />
      <path
         class="e"
         d="m 985.77,626.59 c -0.69,4.14 -4.23,7.15 -8.42,7.15 -0.41,0 -0.81,-0.03 -1.22,-0.09 -0.03,0 -0.05,0 -0.08,0 -0.07,0 -0.26,-0.02 -0.53,-0.02 -0.29,0 -0.57,0.02 -0.83,0.05 -0.06,0 -0.12,0.02 -0.17,0.03 -3.19,0.2 -9.07,2.32 -8.81,8.91 0.03,0.82 0.71,1.46 1.52,1.46 h 0.06 c 0.84,-0.03 1.49,-0.74 1.46,-1.58 -0.13,-3.27 2.02,-4.68 3.8,-5.3 0,1.47 0.26,3.63 1.14,6.71 3.15,11.01 0.1,18.25 -3.02,22.37 -7.57,10.03 -21.34,10.54 -24.03,10.54 -38.85,0 -70.46,-31.61 -70.46,-70.46 0,-38.85 31.61,-70.46 70.46,-70.46 4.71,0 8.55,3.83 8.55,8.54 v 0.76 c 0,4.71 -3.83,8.55 -8.55,8.55 -29.01,0 -52.61,23.6 -52.61,52.61 0,29.01 23.57,52.57 52.57,52.61 2.3,-0.05 7.97,-0.99 9.81,-3.44 1.21,-1.61 0.72,-4.54 0.1,-6.72 -2.88,-10.07 -2.33,-18.22 1.62,-24.24 3.11,-4.74 8.17,-7.79 14.23,-8.59 1.04,-0.14 2.11,-0.21 3.17,-0.21 1.67,0 2.87,0.17 3.31,0.24 2.22,0.37 4.25,1.63 5.56,3.46 1.31,1.83 1.85,4.16 1.48,6.38 l -0.13,0.75 z"
         id="path37" />
      <path
         class="e"
         d="m 1116.86,676.71 h -82.64 V 559.79 h 62.08 v 14.09 h -46.46 c -0.84,0 -1.52,0.68 -1.52,1.52 v 30.85 c 0,0.84 0.68,1.53 1.52,1.53 h 53.32 v 14.09 h -53.32 c -0.84,0 -1.52,0.68 -1.52,1.52 v 37.7 c 0,0.84 0.68,1.52 1.52,1.52 h 67.03 v 14.09 z m -65.5,-71.98 v -4.13 c 0.26,0.2 0.59,0.32 0.93,0.32 h 43.99 l 4.35,3.81 h -49.26 z m 0,50.71 c 0.27,0.2 0.59,0.32 0.93,0.32 h 57.7 l 4.35,3.81 h -62.97 v -4.13 z"
         id="path39" />
      <path
         class="e"
         d="m 1207.96,676.13 -80.15,-83.49 20.27,-17.74 c 0,0.17 0,0.34 0,0.5 0,7.4 1.9,14.37 5.23,20.44 l -8.14,7.12 c -0.31,0.27 -0.5,0.67 -0.52,1.08 -0.02,0.42 0.14,0.82 0.42,1.12 l 51.41,53.56 c 0.3,0.31 0.7,0.47 1.1,0.47 0.36,0 0.72,-0.13 1,-0.38 l 17.14,-14.99 c 0.31,-0.28 0.5,-0.67 0.52,-1.08 0.02,-0.42 -0.13,-0.82 -0.42,-1.12 l -22.68,-23.63 c 1.6,-0.09 3.18,-0.27 4.73,-0.53 l 35.22,36.68 z m -10.37,-116.34 c 4.83,0 8.76,3.93 8.76,8.76 0,4.83 -3.93,8.76 -8.76,8.76 -4.83,0 -8.76,-3.93 -8.76,-8.76 0,-4.83 3.93,-8.76 8.76,-8.76 z"
         id="path41" />
    </g>
    <g
       id="g61">
      <path
         class="d"
         d="m 970.78,219.52 c -0.01,0.07 -0.02,0.15 -0.02,0.23 v 12.22 l -10.15,-8.89 v -12.47 l 10.18,8.91 z m -6.55,10.59 v 15.73 l -3.63,-3.17 v -15.73 z m 6.53,25.3 v 15.73 l -10.15,-8.89 v -15.73 z m -6.53,13.87 v 15.73 l -3.63,-3.17 v -15.73 z m -3.63,16.41 10.15,8.89 v 15.73 l -10.15,-8.89 z m 0,19.59 3.63,3.17 v 15.73 l -3.63,-3.17 z m 30.59,-76.46 H 985.8 L 963,208.87 h 5.39 z m -13.91,12.72 v 15.73 l -10.15,-8.89 v -15.73 z m 0,39.17 v 15.73 l -10.15,-8.89 v -15.73 z m -10.15,30.29 10.15,8.89 v 15.73 l -10.15,-8.89 z m 16.68,-67.6 -10.16,-8.89 v -12.47 l 10.16,8.89 z m 0,23.44 v 15.73 l -10.16,-8.89 v -15.73 z m -10.16,46.01 v -15.73 l 10.16,8.89 v 15.73 z m 6.53,9.57 3.63,3.17 v 15.73 l -3.64,-3.19 c 0,0 0.01,-0.1 0.01,-0.15 v -15.57 z m 3.63,-59.44 -3.63,-3.17 v -15.73 l 3.63,3.17 z m -3.63,36 v -15.73 l 3.63,3.17 v 15.73 z m 13.42,-53.84 h -6.89 v -13.42 h 6.89 z m -6.89,16.32 v -13.42 h 6.89 v 13.42 z m 0,2.9 h 6.89 v 13.42 h -6.89 z m 0,16.32 h 6.89 v 13.42 h -6.89 z m 0,16.32 h 6.89 v 13.42 h -6.89 z m 0,16.32 h 6.89 v 13.42 h -6.89 z m 0,16.32 h 6.89 v 13.42 h -6.89 z"
         id="path45" />
      <path
         class="d"
         d="m 1077.74,253.32 c 0.76,0.27 1.15,1.09 0.89,1.85 -0.21,0.6 -0.77,0.97 -1.37,0.97 -0.16,0 -0.32,-0.03 -0.48,-0.08 -2.3,-0.81 -4.32,-2.37 -5.66,-4.41 -0.44,-0.67 -0.26,-1.57 0.41,-2.01 0.67,-0.44 1.57,-0.26 2.01,0.41 1.01,1.53 2.47,2.67 4.2,3.27 z m 15.87,5.55 c 0.76,0.27 1.15,1.09 0.89,1.85 -0.21,0.6 -0.77,0.97 -1.37,0.97 -0.16,0 -0.32,-0.03 -0.48,-0.08 l -9.66,-3.38 c -0.76,-0.26 -1.16,-1.09 -0.89,-1.85 0.26,-0.76 1.09,-1.16 1.85,-0.89 z m 19.41,6.79 c 0.76,0.27 1.15,1.09 0.89,1.85 -0.21,0.6 -0.77,0.97 -1.37,0.97 -0.16,0 -0.32,-0.03 -0.48,-0.08 l -10.77,-3.77 c -0.76,-0.27 -1.16,-1.09 -0.89,-1.85 0.26,-0.76 1.09,-1.15 1.85,-0.89 z m -4.88,-41.96 v -3.47 c -2.77,-0.92 -5.12,-2.17 -6.82,-3.7 -0.04,0.22 -0.07,0.45 -0.07,0.67 0,2.38 2.55,4.87 6.89,6.5 z m 0.78,70.1 c -0.55,0 -1.08,-0.32 -1.32,-0.85 -0.33,-0.73 0,-1.59 0.73,-1.92 l 16.48,-7.41 c 0.73,-0.33 1.59,0 1.92,0.73 0.33,0.73 0,1.59 -0.73,1.92 l -16.48,7.41 c -0.19,0.09 -0.4,0.13 -0.59,0.13 v 0 z m 25.29,40.06 c 0.72,0.36 1.01,1.23 0.65,1.95 -0.25,0.51 -0.77,0.8 -1.3,0.8 -0.22,0 -0.44,-0.05 -0.65,-0.15 l -22.17,-11.09 c -0.72,-0.36 -1.01,-1.23 -0.65,-1.95 0.36,-0.72 1.23,-1.01 1.95,-0.65 z m 3.31,-116.65 c 0,-0.22 -0.02,-0.45 -0.06,-0.67 -1.7,1.53 -4.05,2.78 -6.83,3.7 v 3.47 c 4.34,-1.63 6.89,-4.12 6.89,-6.5 z m 7.6,117.75 c 0.69,-0.41 1.58,-0.2 1.99,0.49 0.41,0.68 0.2,1.58 -0.49,1.99 -1.76,1.07 -3.78,1.63 -5.84,1.63 -0.8,0 -1.45,-0.65 -1.45,-1.45 0,-0.8 0.65,-1.45 1.45,-1.45 1.53,0 3.03,-0.42 4.33,-1.21 v 0 z m -4.3,-55.5 c -0.55,0 -1.08,-0.32 -1.32,-0.86 -0.33,-0.73 0,-1.59 0.73,-1.92 1.91,-0.86 3.42,-2.39 4.24,-4.32 0.32,-0.74 1.17,-1.08 1.9,-0.76 0.73,0.32 1.08,1.17 0.76,1.91 -1.11,2.59 -3.14,4.66 -5.72,5.82 -0.19,0.09 -0.39,0.13 -0.59,0.13 z"
         id="path47" />
      <path
         class="d"
         d="m 932.26,441.51 c -4.64,0 -9.03,2.25 -11.76,6.03 -1.8,2.49 -2.75,5.42 -2.75,8.48 0,0.8 0.65,1.45 1.45,1.45 0.8,0 1.45,-0.65 1.45,-1.45 0,-2.45 0.76,-4.79 2.2,-6.78 1.68,-2.33 4.16,-3.93 6.9,-4.54 -1.02,0.81 -1.94,1.76 -2.72,2.84 -1.8,2.49 -2.75,5.42 -2.75,8.48 v 7.37 c -2.58,0.64 -5.44,0.98 -8.34,0.98 -2.9,0 -5.76,-0.34 -8.34,-0.98 v -7.37 c 0,-2.85 0.39,-5.68 1.15,-8.41 3.76,-13.41 16.11,-22.78 30.04,-22.78 h 26.11 c 4.6,0 8.34,3.74 8.34,8.34 0,4.6 -3.74,8.34 -8.34,8.34 z m 0,-48.96 c -4.63,0 -9.03,2.25 -11.76,6.03 -1.8,2.49 -2.75,5.42 -2.75,8.48 0,0.8 0.65,1.45 1.45,1.45 0.8,0 1.45,-0.65 1.45,-1.45 0,-2.45 0.76,-4.79 2.2,-6.78 1.68,-2.33 4.16,-3.93 6.9,-4.54 -1.02,0.81 -1.94,1.76 -2.72,2.84 -1.8,2.49 -2.75,5.42 -2.75,8.48 v 7.37 c -2.58,0.64 -5.44,0.97 -8.34,0.97 -2.9,0 -5.76,-0.34 -8.34,-0.97 v -7.37 c 0,-2.85 0.39,-5.68 1.15,-8.41 3.76,-13.41 16.11,-22.78 30.04,-22.78 h 42.44 c 4.6,0 8.34,3.74 8.34,8.34 0,4.6 -3.74,8.34 -8.34,8.34 z"
         id="path49" />
      <path
         class="d"
         d="m 1000.9,437.78 22.66,28.05 h -4.89 l -23.28,-28.82 z m 2.25,-1.83 66.68,-15.69 24,29.71 -66.68,15.69 z"
         id="path51" />
      <path
         class="d"
         d="m 1137.38,401.5 c 0.56,0.57 0.55,1.49 -0.02,2.05 -7.6,7.42 -12.88,16.77 -15.26,27.04 -0.15,0.67 -0.75,1.12 -1.41,1.12 -0.11,0 -0.22,-0.01 -0.33,-0.04 -0.78,-0.18 -1.26,-0.96 -1.08,-1.74 2.5,-10.81 8.06,-20.65 16.06,-28.46 0.57,-0.56 1.49,-0.55 2.05,0.03 v 0 z m -12.39,62.98 c 1.39,3.28 3.11,6.45 5.11,9.41 0.45,0.66 0.27,1.56 -0.39,2.01 -0.25,0.17 -0.53,0.25 -0.81,0.25 -0.47,0 -0.92,-0.22 -1.2,-0.64 -2.11,-3.12 -3.91,-6.45 -5.37,-9.91 -0.31,-0.74 0.03,-1.58 0.77,-1.9 0.74,-0.32 1.58,0.03 1.9,0.77 v 0 z m 14.89,-63.7 c -0.42,0 -0.83,-0.18 -1.12,-0.53 -0.51,-0.62 -0.42,-1.53 0.19,-2.04 2.28,-1.88 4.72,-3.6 7.25,-5.11 0.69,-0.41 1.57,-0.19 1.98,0.5 0.41,0.69 0.18,1.57 -0.5,1.98 -2.41,1.44 -4.72,3.07 -6.89,4.86 -0.27,0.22 -0.6,0.33 -0.92,0.33 v 0 z m 15.45,-9.09 c -0.58,0 -1.12,-0.35 -1.35,-0.92 -0.29,-0.74 0.08,-1.58 0.82,-1.87 6.73,-2.63 13.82,-3.96 21.1,-3.96 0.8,0 1.45,0.65 1.45,1.45 0,0.8 -0.65,1.45 -1.45,1.45 -6.91,0 -13.65,1.27 -20.04,3.76 -0.17,0.07 -0.35,0.1 -0.53,0.1 v 0 z"
         id="path53" />
      <path
         class="d"
         d="m 906.4,562.92 c 0.59,0.6 0.58,1.56 -0.02,2.15 -7.98,7.79 -13.53,17.61 -16.03,28.39 -0.16,0.7 -0.79,1.18 -1.48,1.18 -0.11,0 -0.23,-0.01 -0.34,-0.04 -0.82,-0.19 -1.33,-1.01 -1.14,-1.82 2.63,-11.35 8.46,-21.69 16.86,-29.88 0.6,-0.59 1.56,-0.57 2.15,0.03 v 0 z m -13.01,66.13 c 1.46,3.45 3.26,6.77 5.36,9.88 0.47,0.7 0.29,1.64 -0.41,2.11 -0.26,0.17 -0.56,0.26 -0.85,0.26 -0.49,0 -0.97,-0.23 -1.26,-0.67 -2.21,-3.28 -4.11,-6.77 -5.64,-10.4 -0.33,-0.77 0.04,-1.66 0.81,-1.99 0.77,-0.33 1.66,0.04 1.99,0.81 z m 15.64,-66.89 c -0.44,0 -0.87,-0.19 -1.17,-0.55 -0.54,-0.65 -0.44,-1.6 0.2,-2.14 2.39,-1.97 4.95,-3.78 7.61,-5.37 0.72,-0.43 1.65,-0.2 2.08,0.53 0.43,0.73 0.19,1.65 -0.53,2.08 -2.53,1.51 -4.96,3.22 -7.23,5.1 -0.28,0.23 -0.63,0.35 -0.97,0.35 v 0 z m 16.22,-9.54 c -0.61,0 -1.18,-0.37 -1.42,-0.97 -0.3,-0.78 0.08,-1.66 0.86,-1.97 7.06,-2.76 14.52,-4.16 22.15,-4.16 0.84,0 1.52,0.68 1.52,1.52 0,0.84 -0.68,1.52 -1.52,1.52 -7.26,0 -14.34,1.33 -21.04,3.95 -0.18,0.07 -0.37,0.11 -0.55,0.11 z"
         id="path55" />
      <path
         class="d"
         d="m 1007.01,537.83 24.38,21.33 v 115.92 l -24.38,-21.33 z m 69.91,12.26 h -23.86 l -8.27,-7.24 h 32.13 z m -25.35,37.7 v -3.81 h 25.32 l 4.35,3.81 h -29.68 z m 32.21,10.28 h -30.71 l -1.5,-1.31 v -5.92 h 32.21 z m -32.21,44.56 v -3.81 h 39.03 l 4.35,3.81 h -43.39 z m 45.92,10.28 h -44.42 l -1.5,-1.31 v -5.93 h 45.92 z"
         id="path57" />
      <path
         class="d"
         d="m 1134.58,604.07 v 4.29 h -7.23 v -11.83 z m 6.86,7.34 v 10.66 h -14.09 v -10.66 z m -6.86,13.71 v 10.66 h -7.23 v -10.66 z m 6.86,13.71 v 10.66 h -14.09 v -10.66 z m -14.09,27.42 h 14.09 v 10.66 h -14.09 z m 0,-3.05 v -10.66 h 7.24 v 10.66 z m 11.35,-54.84 h -1.07 v -1.12 z m 0,0 -1.07,-1.12 v 1.12 z m 13.02,16.76 v 10.66 h -14.09 v -10.66 z m -14.09,38.08 v -10.66 h 14.09 v 10.66 z m 6.85,3.05 h 14.09 v 10.66 h -14.09 z m 0,-44.18 v -7.69 l 7.38,7.69 z m 0,27.42 v -10.66 h 14.09 v 10.66 z m 4.1,-45.08 6.51,-5.7 c 0.39,0.6 0.79,1.18 1.2,1.76 l -6.25,5.47 z m 6.18,31.37 0.02,-10.66 10.24,10.66 z m 0,27.42 v -10.66 h 14.09 v 10.66 z m 6.85,3.05 h 14.09 v 10.66 h -14.09 z m 0,-16.76 v -10.66 h 6.33 l 7.87,8.2 c -0.07,0.17 -0.11,0.36 -0.11,0.56 v 1.9 z m 29.32,-51.41 c -12.39,0 -22.47,-10.08 -22.47,-22.47 0,-12.39 10.08,-22.47 22.47,-22.47 12.39,0 22.47,10.08 22.47,22.47 0,12.39 -10.04,22.47 -22.47,22.47 z m -19.04,65.12 v -10.66 h 8.76 c 0.14,0 0.27,-0.03 0.39,-0.06 l 4.96,5.17 c -0.01,0.07 -0.02,0.14 -0.02,0.22 v 5.33 z m 19.04,-72.36 c 7.88,0 14.39,-6.02 15.16,-13.71 2.16,-2.14 3.5,-5.11 3.5,-8.38 0,-6.51 -5.29,-11.81 -11.8,-11.81 -3.28,0 -6.24,1.34 -8.39,3.5 -7.68,0.77 -13.7,7.27 -13.7,15.16 0,8.4 6.83,15.23 15.23,15.23 z m -12.18,75.41 h 14.09 v 10.66 h -14.09 z m 32.7,-22.35 -24.82,-25.85 c 0.84,0.08 1.68,0.14 2.53,0.18 l 23.57,24.56 -1.28,1.12 z m -22.41,16.9 2.31,2.4 h -2.31 z m 0,0 v 2.4 h 2.31 z m 6.85,7.14 8.61,8.97 h -8.61 z"
         id="path59" />
    </g>
  </g>
</svg>
